{
  "asset": {
    "version": "2.0",
    "generator": "GLTFExporter"
  },
  "scenes": [
    {
      "name": "Scene",
      "nodes": [
        3
      ]
    }
  ],
  "scene": 0,
  "nodes": [
    {
      "matrix": [
        1,
        0,
        0,
        0,
        0,
        1,
        0,
        0,
        0,
        0,
        1,
        0,
        -0.050275370478630066,
        0.41149014234542847,
        -0.060175903141498566,
        1
      ],
      "name": "Torus",
      "extras": {
        "name": "Torus"
      },
      "mesh": 0
    },
    {
      "matrix": [
        0.6805422306060791,
        0,
        0,
        0,
        0,
        0.6805422306060791,
        0,
        0,
        0,
        0,
        0.6805422306060791,
        0,
        -0.012200914323329926,
        1.7009308338165283,
        -0.049452122300863266,
        1
      ],
      "name": "Torus001",
      "extras": {
        "name": "Torus.001"
      },
      "mesh": 1
    },
    {
      "matrix": [
        0.44475507736206055,
        0,
        0,
        0,
        0,
        0.44475507736206055,
        0,
        0,
        0,
        0,
        0.44475507736206055,
        0,
        -0.02081989496946335,
        2.7047808170318604,
        0.07548701763153076,
        1
      ],
      "name": "Torus002",
      "extras": {
        "name": "Torus.002"
      },
      "mesh": 2
    },
    {
      "name": "untitled.gltf",
      "children": [
        0,
        1,
        2
      ]
    }
  ],
  "bufferViews": [
    {
      "buffer": 0,
      "byteOffset": 0,
      "byteLength": 9360,
      "target": 34962,
      "byteStride": 12
    },
    {
      "buffer": 0,
      "byteOffset": 9360,
      "byteLength": 9360,
      "target": 34962,
      "byteStride": 12
    },
    {
      "buffer": 0,
      "byteOffset": 18720,
      "byteLength": 6240,
      "target": 34962,
      "byteStride": 8
    },
    {
      "buffer": 0,
      "byteOffset": 24960,
      "byteLength": 2340,
      "target": 34963
    },
    {
      "buffer": 0,
      "byteOffset": 27300,
      "byteLength": 9360,
      "target": 34962,
      "byteStride": 12
    },
    {
      "buffer": 0,
      "byteOffset": 36660,
      "byteLength": 9360,
      "target": 34962,
      "byteStride": 12
    },
    {
      "buffer": 0,
      "byteOffset": 46020,
      "byteLength": 6240,
      "target": 34962,
      "byteStride": 8
    },
    {
      "buffer": 0,
      "byteOffset": 52260,
      "byteLength": 2340,
      "target": 34963
    },
    {
      "buffer": 0,
      "byteOffset": 54600,
      "byteLength": 9360,
      "target": 34962,
      "byteStride": 12
    },
    {
      "buffer": 0,
      "byteOffset": 63960,
      "byteLength": 9360,
      "target": 34962,
      "byteStride": 12
    },
    {
      "buffer": 0,
      "byteOffset": 73320,
      "byteLength": 6240,
      "target": 34962,
      "byteStride": 8
    },
    {
      "buffer": 0,
      "byteOffset": 79560,
      "byteLength": 2340,
      "target": 34963
    }
  ],
  "buffers": [
    {
      "byteLength": 81900,
      "uri": "data:application/octet-stream;base64,"
    }
  ],
  "accessors": [
    {
      "bufferView": 0,
      "componentType": 5126,
      "count": 780,
      "max": [
        1.649999976158142,
        0.10461621731519699,
        1.648661732673645
      ],
      "min": [
        -1.644649624824524,
        -0.10461621731519699,
        -1.6486618518829346
      ],
      "type": "VEC3"
    },
    {
      "bufferView": 1,
      "componentType": 5126,
      "count": 780,
      "max": [
        1,
        0.9507607817649841,
        0.9991889595985413
      ],
      "min": [
        -0.9967573285102844,
        -0.9507607817649841,
        -0.9991890788078308
      ],
      "type": "VEC3"
    },
    {
      "bufferView": 2,
      "componentType": 5126,
      "count": 780,
      "max": [
        1,
        1
      ],
      "min": [
        4.440892098500626e-16,
        0
      ],
      "type": "VEC2"
    },
    {
      "bufferView": 3,
      "componentType": 5123,
      "count": 1170,
      "max": [
        779
      ],
      "min": [
        0
      ],
      "type": "SCALAR"
    },
    {
      "bufferView": 4,
      "componentType": 5126,
      "count": 780,
      "max": [
        1.649999976158142,
        0.10461621731519699,
        1.648661732673645
      ],
      "min": [
        -1.644649624824524,
        -0.10461621731519699,
        -1.6486618518829346
      ],
      "type": "VEC3"
    },
    {
      "bufferView": 5,
      "componentType": 5126,
      "count": 780,
      "max": [
        1,
        0.9507607817649841,
        0.9991889595985413
      ],
      "min": [
        -0.9967573285102844,
        -0.9507607817649841,
        -0.9991890788078308
      ],
      "type": "VEC3"
    },
    {
      "bufferView": 6,
      "componentType": 5126,
      "count": 780,
      "max": [
        1,
        1
      ],
      "min": [
        4.440892098500626e-16,
        0
      ],
      "type": "VEC2"
    },
    {
      "bufferView": 7,
      "componentType": 5123,
      "count": 1170,
      "max": [
        779
      ],
      "min": [
        0
      ],
      "type": "SCALAR"
    },
    {
      "bufferView": 8,
      "componentType": 5126,
      "count": 780,
      "max": [
        1.649999976158142,
        0.10461621731519699,
        1.648661732673645
      ],
      "min": [
        -1.644649624824524,
        -0.10461621731519699,
        -1.6486618518829346
      ],
      "type": "VEC3"
    },
    {
      "bufferView": 9,
      "componentType": 5126,
      "count": 780,
      "max": [
        1,
        0.9507607817649841,
        0.9991889595985413
      ],
      "min": [
        -0.9967573285102844,
        -0.9507607817649841,
        -0.9991890788078308
      ],
      "type": "VEC3"
    },
    {
      "bufferView": 10,
      "componentType": 5126,
      "count": 780,
      "max": [
        1,
        1
      ],
      "min": [
        4.440892098500626e-16,
        0
      ],
      "type": "VEC2"
    },
    {
      "bufferView": 11,
      "componentType": 5123,
      "count": 1170,
      "max": [
        779
      ],
      "min": [
        0
      ],
      "type": "SCALAR"
    }
  ],
  "materials": [
    {
      "pbrMetallicRoughness": {
        "baseColorFactor": [
          0.9647058823529412,
          0.6588235294117647,
          0.13725490196078433,
          1
        ],
        "metallicFactor": 0.5,
        "roughnessFactor": 0.5
      },
      "emissiveFactor": [
        0.6637647058823529,
        0.37317647058823533,
        0.09788235294117648
      ]
    }
  ],
  "meshes": [
    {
      "primitives": [
        {
          "mode": 4,
          "attributes": {
            "POSITION": 0,
            "NORMAL": 1,
            "TEXCOORD_0": 2
          },
          "indices": 3,
          "material": 0
        }
      ]
    },
    {
      "primitives": [
        {
          "mode": 4,
          "attributes": {
            "POSITION": 4,
            "NORMAL": 5,
            "TEXCOORD_0": 6
          },
          "indices": 7,
          "material": 0
        }
      ]
    },
    {
      "primitives": [
        {
          "mode": 4,
          "attributes": {
            "POSITION": 8,
            "NORMAL": 9,
            "TEXCOORD_0": 10
          },
          "indices": 11,
          "material": 0
        }
      ]
    }
  ]
}